<?xml version="1.0" encoding="utf-8"?>
<!-- Generator: Adobe Illustrator 23.0.6, SVG Export Plug-In . SVG Version: 6.00 Build 0)  -->
<svg version="1.1" id="Layer_1" xmlns="http://www.w3.org/2000/svg" xmlns:xlink="http://www.w3.org/1999/xlink" x="0px" y="0px"
	 viewBox="0 0 500 500" style="enable-background:new 0 0 500 500;" xml:space="preserve">
<style type="text/css">
	.st0{fill:none;stroke:#F4B13E;stroke-width:10;stroke-miterlimit:10;}
	.st1{fill:#F4B13E;}
	.st2{fill:#FFFFFF;}
	.st3{font-family:'Arial-BoldMT';}
	.st4{font-size:60px;}
	.st5{fill:none;stroke:#F4B13E;stroke-width:10;stroke-linecap:round;stroke-miterlimit:10;}
	.st6{fill:none;stroke:#F4B13E;stroke-width:5;stroke-miterlimit:10;}
	.st7{fill:#F4B13E;stroke:#F4B13E;stroke-width:5;stroke-miterlimit:10;}
</style>
<g>
	<path class="st0" d="M406.7,306.8H117.6c-11,0-20-9-20-20V127c0-11,9-20,20-20h289.1c11,0,20,9,20,20v159.8
		C426.7,297.8,417.8,306.8,406.7,306.8z"/>
	<circle class="st1" cx="103.8" cy="114.3" r="38.6"/>
	<text transform="matrix(1 0 0 1 85.1301 134.9741)" class="st2 st3 st4">2</text>
	<line class="st5" x1="312.1" y1="79.4" x2="312.1" y2="134.6"/>
	<line class="st5" x1="220.7" y1="79.4" x2="220.7" y2="134.6"/>
	<line class="st0" x1="97.8" y1="144" x2="426.7" y2="144"/>
	<path class="st6" d="M154,209.7h-32.7c-2.8,0-5-2.2-5-5V172c0-2.8,2.2-5,5-5H154c2.8,0,5,2.2,5,5v32.7
		C159,207.5,156.7,209.7,154,209.7z"/>
	<path class="st6" d="M215.7,209.7H183c-2.8,0-5-2.2-5-5V172c0-2.8,2.2-5,5-5h32.7c2.8,0,5,2.2,5,5v32.7
		C220.7,207.5,218.5,209.7,215.7,209.7z"/>
	<path class="st6" d="M276.5,209.7h-32.7c-2.8,0-5-2.2-5-5V172c0-2.8,2.2-5,5-5h32.7c2.8,0,5,2.2,5,5v32.7
		C281.5,207.5,279.3,209.7,276.5,209.7z"/>
	<path class="st6" d="M338.3,209.7h-32.7c-2.8,0-5-2.2-5-5V172c0-2.8,2.2-5,5-5h32.7c2.8,0,5,2.2,5,5v32.7
		C343.3,207.5,341.1,209.7,338.3,209.7z"/>
	<path class="st6" d="M401,209.7h-32.7c-2.8,0-5-2.2-5-5V172c0-2.8,2.2-5,5-5H401c2.8,0,5,2.2,5,5v32.7
		C406,207.5,403.8,209.7,401,209.7z"/>
	<path class="st6" d="M153,275.4h-32.7c-2.8,0-5-2.2-5-5v-32.7c0-2.8,2.2-5,5-5H153c2.8,0,5,2.2,5,5v32.7
		C158,273.2,155.8,275.4,153,275.4z"/>
	<path class="st6" d="M214.8,275.4h-32.7c-2.8,0-5-2.2-5-5v-32.7c0-2.8,2.2-5,5-5h32.7c2.8,0,5,2.2,5,5v32.7
		C219.8,273.2,217.5,275.4,214.8,275.4z"/>
	<path class="st7" d="M275.6,275.4h-32.7c-2.8,0-5-2.2-5-5v-32.7c0-2.8,2.2-5,5-5h32.7c2.8,0,5,2.2,5,5v32.7
		C280.6,273.2,278.3,275.4,275.6,275.4z"/>
	<path class="st6" d="M337.3,275.4h-32.7c-2.8,0-5-2.2-5-5v-32.7c0-2.8,2.2-5,5-5h32.7c2.8,0,5,2.2,5,5v32.7
		C342.3,273.2,340.1,275.4,337.3,275.4z"/>
	<path class="st6" d="M400.1,275.4h-32.7c-2.8,0-5-2.2-5-5v-32.7c0-2.8,2.2-5,5-5h32.7c2.8,0,5,2.2,5,5v32.7
		C405.1,273.2,402.8,275.4,400.1,275.4z"/>
</g>
</svg>
