<?xml version="1.0" encoding="utf-8"?>
<!-- Generator: Adobe Illustrator 23.0.6, SVG Export Plug-In . SVG Version: 6.00 Build 0)  -->
<svg version="1.1" id="Layer_1" xmlns="http://www.w3.org/2000/svg" xmlns:xlink="http://www.w3.org/1999/xlink" x="0px" y="0px"
	 viewBox="0 0 500 500" style="enable-background:new 0 0 500 500;" xml:space="preserve">
<style type="text/css">
	.st0{fill:none;stroke:#F4B13E;stroke-width:10;stroke-miterlimit:10;}
	.st1{fill:#F4B13E;}
	.st2{fill:#FFFFFF;}
	.st3{font-family:'Arial-BoldMT';}
	.st4{font-size:60px;}
	.st5{fill:none;stroke:#F4B13E;stroke-width:10;stroke-linecap:round;stroke-linejoin:round;stroke-miterlimit:10;}
</style>
<path class="st0" d="M371.1,383.8H134.2c-11,0-20-9-20-20V127c0-11,9-20,20-20h236.9c11,0,20,9,20,20v236.9
	C391.1,374.9,382.1,383.8,371.1,383.8z"/>
<circle class="st1" cx="120.1" cy="114.3" r="38.6"/>
<text transform="matrix(1 0 0 1 101.4616 134.9741)" class="st2 st3 st4">3</text>
<line class="st0" x1="118.1" y1="176" x2="388.2" y2="176"/>
<line class="st0" x1="158.7" y1="140.8" x2="168.3" y2="140.8"/>
<line class="st0" x1="179.3" y1="140.8" x2="189" y2="140.8"/>
<line class="st0" x1="201.3" y1="140.8" x2="211" y2="140.8"/>
<line class="st0" x1="269.4" y1="140.8" x2="362.2" y2="140.8"/>
<polyline class="st5" points="199.4,238.9 169,266.1 199.4,297.9 "/>
<polyline class="st5" points="306.1,238.9 336.5,266.1 306.1,297.9 "/>
<line class="st5" x1="228.6" y1="331.8" x2="268.9" y2="220.9"/>
</svg>
