<?xml version="1.0" encoding="utf-8"?>
<!-- Generator: Adobe Illustrator 23.0.6, SVG Export Plug-In . SVG Version: 6.00 Build 0)  -->
<svg version="1.1" id="Layer_1" xmlns="http://www.w3.org/2000/svg" xmlns:xlink="http://www.w3.org/1999/xlink" x="0px" y="0px"
	 viewBox="0 0 500 500" style="enable-background:new 0 0 500 500;" xml:space="preserve">
<style type="text/css">
	.st0{fill:#F4B13E;}
	.st1{fill:#F4B13E;stroke:#FFFFFF;stroke-width:10;stroke-miterlimit:10;}
</style>
<path class="st0" d="M369.8,291.8c-13.2-14.1-43-45.8-84.3-53.2c0,0,0,0,0,0c-1.1-0.2-2.2-0.4-3.3-0.5c-0.4-0.1-0.8-0.1-1.2-0.2
	c-12.2-1.8-29.2-3.1-48.4-0.9c-55,6.4-85.6,36.8-102.4,54.8C87.4,337.5,90.6,383.4,92,399.1c0.3,3.4,0.7,6.2,1,8.1
	c5.7,0,11.4,0,17.1,0c44.4,0,88.8,0,133.2,0c4.5,0,8.9,0,13.4,0c44.4,0,88.8,0,133.2,0c5.7,0,11.4,0,17.1,0c0.3-1.9,0.7-4.8,1-8.1
	C409.4,383.4,412.6,337.5,369.8,291.8z"/>
<circle class="st1" cx="250" cy="183.2" r="90.5"/>
</svg>
